<svg xmlns="http://www.w3.org/2000/svg" width="1680" height="1650" viewBox="0 0 1680 1650" role="img" aria-labelledby="title desc">
<title id="title">Wiki 지식 계층과 Lineage</title><desc id="desc">아래 L1 Raw sources부터 L2 Ingest, L3 Wiki의 Memory·Article·Glossary, L4 Query, L5 Answers까지 하나의 합성 결제 정책 예제를 따른다. 오른쪽에는 원천 자료에서 Ingest 실행, Memory, Article 개정, Context으로 이어지는 계보를 표시한다. Workspace 권한은 모든 계층에 적용한다. Query는 키워드와 용어집 별칭으로 문서를 찾고 연결된 근거로 Context를 구성한다.</desc>
<defs><marker id="arrow" markerWidth="9" markerHeight="9" refX="7" refY="4.5" orient="auto" markerUnits="userSpaceOnUse"><path d="M1 1 L7 4.5 L1 8" fill="none" stroke="#59769B" stroke-width="1.8"/></marker><marker id="arrow-ingest" markerWidth="9" markerHeight="9" refX="7" refY="4.5" orient="auto-start-reverse" markerUnits="userSpaceOnUse"><path d="M1 1 L7 4.5 L1 8" fill="none" stroke="#B35C00" stroke-width="2"/></marker><marker id="arrow-query" markerWidth="9" markerHeight="9" refX="7" refY="4.5" orient="auto-start-reverse" markerUnits="userSpaceOnUse"><path d="M1 1 L7 4.5 L1 8" fill="none" stroke="#245CC5" stroke-width="2"/></marker><marker id="arrow-ops" markerWidth="9" markerHeight="9" refX="7" refY="4.5" orient="auto-start-reverse" markerUnits="userSpaceOnUse"><path d="M1 1 L7 4.5 L1 8" fill="none" stroke="#68778B" stroke-width="2"/></marker><marker id="arrow-relation" markerWidth="9" markerHeight="9" refX="7" refY="4.5" orient="auto-start-reverse" markerUnits="userSpaceOnUse"><path d="M1 1 L7 4.5 L1 8" fill="none" stroke="#8054A3" stroke-width="2"/></marker></defs>
<g font-family="Noto Sans KR, sans-serif"><rect width="1680" height="1650" fill="#FFFFFF"/>
<text x="48" y="46" font-size="16" font-weight="700" fill="#526A86">AGENT WIKI / KNOWLEDGE ARCHITECTURE</text>
<text x="48" y="107" font-size="40" font-weight="700" fill="#172C4B">에이전트의 질답과 작업에 근거를 제공한다</text>
<text x="1398" y="105" font-size="24" font-weight="700" fill="#526A86">L1 → L5</text>
<path d="M48 137 H1632" stroke="#172C4B" stroke-width="2"/>
<rect x="48" y="157" width="1584" height="44" rx="6" fill="#172C4B" stroke="#172C4B"/>
<text x="65" y="186" font-size="20" font-weight="700" fill="#FFFFFF">업무 Workspace</text>
<text x="292" y="186" font-size="18" font-weight="400" fill="#FFFFFF">Data Governance · 접근 권한 / 마스킹 / 보관</text>
<text x="1125" y="186" font-size="18" font-weight="400" fill="#FFFFFF">취미 자료·검색·AI 맥락과 분리</text>
<rect x="48" y="225" width="1296" height="144" rx="6" fill="#EAF1FF" stroke="#CDD9E7"/>
<rect x="48" y="225" width="82" height="144" fill="#2B56A7"/>
<text x="63" y="309.0" font-size="33" font-weight="700" fill="#FFFFFF">L5</text>
<text x="154" y="269" font-size="29" font-weight="700" fill="#172C4B">응답·활용</text>
<text x="154" y="302" font-size="18" font-weight="700" fill="#2B56A7">Answers</text>
<text x="154" y="337" font-size="17" font-weight="400" fill="#526A86">에이전트가 활용</text>
<path d="M332 243 V351" stroke="#BED0DE"/>
<rect x="48" y="395" width="1296" height="204" rx="6" fill="#E4EDFF" stroke="#CDD9E7"/>
<rect x="48" y="395" width="82" height="204" fill="#285BC0"/>
<text x="63" y="509.0" font-size="33" font-weight="700" fill="#FFFFFF">L4</text>
<text x="154" y="439" font-size="29" font-weight="700" fill="#172C4B">질의</text>
<text x="154" y="472" font-size="18" font-weight="700" fill="#285BC0">Query</text>
<text x="154" y="507" font-size="17" font-weight="400" fill="#526A86">요청에 맞는 맥락</text>
<path d="M332 413 V581" stroke="#BED0DE"/>
<path d="M89 391 V373" fill="none" stroke="#245CC5" stroke-width="2.5" stroke-linejoin="round" marker-end="url(#arrow-query)"/>
<rect x="48" y="625" width="1296" height="328" rx="6" fill="#E4F4F0" stroke="#CDD9E7"/>
<rect x="48" y="625" width="82" height="328" fill="#237964"/>
<text x="63" y="801.0" font-size="33" font-weight="700" fill="#FFFFFF">L3</text>
<text x="154" y="669" font-size="29" font-weight="700" fill="#172C4B">누적 지식</text>
<text x="154" y="702" font-size="18" font-weight="700" fill="#237964">Wiki</text>
<text x="154" y="737" font-size="17" font-weight="400" fill="#526A86">지식과 의미의 연결</text>
<path d="M332 643 V935" stroke="#BED0DE"/>
<path d="M89 621 V603" fill="none" stroke="#245CC5" stroke-width="2.5" stroke-linejoin="round" marker-end="url(#arrow-query)"/>
<rect x="48" y="979" width="1296" height="208" rx="6" fill="#FFF3DC" stroke="#CDD9E7"/>
<rect x="48" y="979" width="82" height="208" fill="#936522"/>
<text x="63" y="1095.0" font-size="33" font-weight="700" fill="#FFFFFF">L2</text>
<text x="154" y="1023" font-size="29" font-weight="700" fill="#172C4B">지식 반영</text>
<text x="154" y="1056" font-size="18" font-weight="700" fill="#936522">Ingest</text>
<text x="154" y="1091" font-size="17" font-weight="400" fill="#526A86">사실·결정 후보 추출</text>
<path d="M332 997 V1169" stroke="#BED0DE"/>
<path d="M89 975 V957" fill="none" stroke="#B35C00" stroke-width="2.5" stroke-linejoin="round" marker-end="url(#arrow-ingest)"/>
<rect x="48" y="1213" width="1296" height="225" rx="6" fill="#EDF2F8" stroke="#CDD9E7"/>
<rect x="48" y="1213" width="82" height="225" fill="#536E90"/>
<text x="63" y="1337.5" font-size="33" font-weight="700" fill="#FFFFFF">L1</text>
<text x="154" y="1257" font-size="29" font-weight="700" fill="#172C4B">원천 자료</text>
<text x="154" y="1290" font-size="18" font-weight="700" fill="#536E90">Raw sources</text>
<text x="154" y="1325" font-size="17" font-weight="400" fill="#526A86">세션 · 메모 · 문서</text>
<path d="M332 1231 V1420" stroke="#BED0DE"/>
<path d="M89 1209 V1191" fill="none" stroke="#B35C00" stroke-width="2.5" stroke-linejoin="round" marker-end="url(#arrow-ingest)"/>
<text x="358" y="258" font-size="17" font-weight="700" fill="#2B56A7">주 용례 · 에이전트의 질답·작업</text>
<text x="358" y="296" font-size="21" font-weight="700" fill="#172C4B">조회한 정책·출처를 근거로</text>
<text x="358" y="333" font-size="21" font-weight="700" fill="#172C4B">현재 에이전트가 답변·작업</text>
<text x="855" y="258" font-size="17" font-weight="700" fill="#2B56A7">보조 · 웹 WIKI</text>
<text x="855" y="296" font-size="21" font-weight="700" fill="#172C4B">정책을 편집·정정하고</text>
<text x="855" y="333" font-size="18" font-weight="400" fill="#172C4B">인용된 근거·개정을 확인</text>
<text x="358" y="430" font-size="21" font-weight="700" fill="#285BC0">키워드·별칭 조회 → 제목·태그 우선 정렬 → 연결된 근거 확인</text>
<rect x="358" y="450" width="365" height="128" rx="6" fill="#FFFFFF" stroke="#BDCCEB"/>
<text x="374" y="478" font-size="17" font-weight="700" fill="#285BC0">키워드 색인 · Folder / Tag 필터</text>
<text x="374" y="509" font-size="18" font-weight="400" fill="#172C4B">질의: 결제 idempotency</text>
<text x="374" y="539" font-size="17" font-weight="400" fill="#172C4B">별칭: idempotency → 멱등성</text>
<text x="374" y="566" font-size="17" font-weight="400" fill="#172C4B">결제 · 멱등성 → 문서 a1@r1</text>
<path d="M724 514 H752" fill="none" stroke="#245CC5" stroke-width="2.5" stroke-linejoin="round" marker-end="url(#arrow-query)"/>
<rect x="754" y="450" width="562" height="128" rx="6" fill="#FFFFFF" stroke="#BDCCEB"/>
<text x="770" y="478" font-size="18" font-weight="700" fill="#285BC0">Context · c1 · 결제 재시도 정책</text>
<text x="770" y="510" font-size="19" font-weight="400" fill="#172C4B">현재 결정: 동일 요청은 같은 멱등 키</text>
<text x="770" y="539" font-size="17" font-weight="400" fill="#172C4B">상태: 정책 확정 · 구현 전</text>
<text x="770" y="566" font-size="16" font-weight="400" fill="#172C4B">근거: a1@r1 → m1 → session-demo#e3</text>
<rect x="358" y="650" width="280" height="172" rx="6" fill="#FFFFFF" stroke="#A7D1C5"/>
<text x="374" y="680" font-size="20" font-weight="700" fill="#237964">Memory · m1</text>
<rect x="658" y="650" width="334" height="172" rx="6" fill="#FFFFFF" stroke="#A7D1C5"/>
<text x="674" y="680" font-size="20" font-weight="700" fill="#237964">Article · a1@r1</text>
<rect x="1012" y="650" width="304" height="172" rx="6" fill="#FFFFFF" stroke="#A7D1C5"/>
<text x="1028" y="680" font-size="20" font-weight="700" fill="#237964">Glossary · 용어집</text>
<text x="374" y="714" font-size="20" font-weight="400" fill="#172C4B">동일 결제 요청에는</text>
<text x="374" y="742" font-size="20" font-weight="700" fill="#172C4B">같은 멱등 키를 쓴다.</text>
<text x="374" y="776" font-size="17" font-weight="400" fill="#172C4B">정책 확정 · 구현 전</text>
<text x="374" y="802" font-size="15" font-weight="400" fill="#526A86">근거: session-demo#e3</text>
<text x="674" y="715" font-size="21" font-weight="700" fill="#172C4B"># 결제 재시도 정책</text>
<text x="674" y="747" font-size="19" font-weight="400" fill="#172C4B">결정 + 이유 + 적용 범위</text>
<text x="674" y="778" font-size="18" font-weight="400" fill="#172C4B">[[멱등성]]  [[결제 일지]]</text>
<text x="674" y="803" font-size="15" font-weight="400" fill="#526A86">읽을 수 있는 Markdown 문서</text>
<text x="1028" y="714" font-size="18" font-weight="700" fill="#172C4B">Glossary Term: 멱등성</text>
<text x="1028" y="743" font-size="18" font-weight="400" fill="#172C4B">별칭: idempotency</text>
<text x="1028" y="774" font-size="17" font-weight="400" fill="#172C4B">의미: 반복해도 효과는 동일</text>
<text x="1028" y="802" font-size="16" font-weight="400" fill="#526A86">별칭으로 같은 용어 검색</text>
<text x="358" y="850" font-size="14" font-weight="700" fill="#237964">TYPED RELATIONS</text>
<rect x="358" y="873" width="238" height="48" rx="6" fill="#FFFFFF" stroke="#CDD9E7"/>
<text x="374" y="904" font-size="19" font-weight="700" fill="#172C4B">Article a1@r1</text>
<rect x="805" y="873" width="195" height="48" rx="6" fill="#FFFFFF" stroke="#CDD9E7"/>
<text x="822" y="904" font-size="19" font-weight="700" fill="#172C4B">Memory m1</text>
<path d="M596 897 H805" fill="none" stroke="#8054A3" stroke-width="2.5" stroke-linejoin="round" marker-end="url(#arrow-relation)"/>
<text x="623" y="885" font-size="17" font-weight="400" fill="#237964">supported_by</text>
<rect x="1135" y="873" width="181" height="48" rx="6" fill="#FFFFFF" stroke="#CDD9E7"/>
<text x="1151" y="904" font-size="18" font-weight="700" fill="#172C4B">Term: 멱등성</text>
<path d="M1000 897 H1135" fill="none" stroke="#8054A3" stroke-width="2.5" stroke-linejoin="round" marker-end="url(#arrow-relation)"/>
<text x="1030" y="885" font-size="17" font-weight="400" fill="#237964">about</text>
<text x="358" y="1012" font-size="20" font-weight="700" fill="#936522">AI 추출 + JSON 계약·출처 검증 → 지식 갱신 후보</text>
<text x="358" y="1054" font-size="18" font-weight="400" fill="#172C4B">{ &quot;type&quot;: &quot;decision&quot;, &quot;claim&quot;: &quot;동일 요청은 같은 멱등 키&quot;,</text>
<text x="358" y="1086" font-size="18" font-weight="400" fill="#172C4B">  &quot;evidence_status&quot;: &quot;user_confirmed&quot;, &quot;implementation&quot;: &quot;not_started&quot;,</text>
<text x="358" y="1118" font-size="18" font-weight="400" fill="#172C4B">  &quot;source&quot;: &quot;session-demo#e3&quot;, &quot;run_id&quot;: &quot;r7&quot; }</text>
<text x="358" y="1160" font-size="20" font-weight="700" fill="#936522">중복·상충 검사 → 확정된 Memory와 Article 개정 반영</text>
<text x="358" y="1248" font-size="18" font-weight="700" fill="#536E90">Document · session-demo.json · 합성 대화</text>
<text x="358" y="1287" font-size="21" font-weight="400" fill="#172C4B">e1 사용자  “재시도할 때 중복 결제는 막아야 해.”</text>
<text x="358" y="1326" font-size="21" font-weight="400" fill="#172C4B">e2 에이전트  “동일 요청에는 같은 멱등 키를 쓰는 정책을 제안합니다.”</text>
<text x="358" y="1365" font-size="21" font-weight="400" fill="#172C4B">e3 사용자  “좋아. 같은 키를 쓰자. 정책만 정했고 구현은 아직이야.”</text>
<text x="358" y="1410" font-size="17" font-weight="400" fill="#526A86">원문 위치 + content hash + 접수 시각</text>
<rect x="1370" y="225" width="262" height="1213" rx="6" fill="#F6F1FC" stroke="#D8C9E9"/>
<text x="1390" y="261" font-size="25" font-weight="700" fill="#67429B">Data Lineage</text>
<text x="1390" y="290" font-size="16" font-weight="400" fill="#67429B">원문부터 맥락까지의 계보</text>
<rect x="1390" y="379" width="222" height="100" rx="6" fill="#FFFFFF" stroke="#D8C9E9"/>
<text x="1406" y="413" font-size="20" font-weight="700" fill="#67429B">Context c1</text>
<text x="1406" y="448" font-size="16" font-weight="400" fill="#172C4B">선택된 지식·인용 목록</text>
<path d="M1500 569 V479" fill="none" stroke="#8054A3" stroke-width="2.5" stroke-linejoin="round" marker-end="url(#arrow-relation)"/>
<text x="1510" y="524.0" font-size="14" font-weight="400" fill="#67429B">선택</text>
<rect x="1390" y="569" width="222" height="100" rx="6" fill="#FFFFFF" stroke="#D8C9E9"/>
<text x="1406" y="603" font-size="20" font-weight="700" fill="#67429B">Article a1@r1</text>
<text x="1406" y="638" font-size="16" font-weight="400" fill="#172C4B">문서 개정·근거 연결</text>
<path d="M1500 759 V669" fill="none" stroke="#8054A3" stroke-width="2.5" stroke-linejoin="round" marker-end="url(#arrow-relation)"/>
<text x="1510" y="714.0" font-size="14" font-weight="400" fill="#67429B">반영</text>
<rect x="1390" y="759" width="222" height="100" rx="6" fill="#FFFFFF" stroke="#D8C9E9"/>
<text x="1406" y="793" font-size="20" font-weight="700" fill="#67429B">Memory m1</text>
<text x="1406" y="828" font-size="16" font-weight="400" fill="#172C4B">주장·상태·유효 시점</text>
<path d="M1500 949 V859" fill="none" stroke="#8054A3" stroke-width="2.5" stroke-linejoin="round" marker-end="url(#arrow-relation)"/>
<text x="1510" y="904.0" font-size="14" font-weight="400" fill="#67429B">생성</text>
<rect x="1390" y="949" width="222" height="100" rx="6" fill="#FFFFFF" stroke="#D8C9E9"/>
<text x="1406" y="983" font-size="20" font-weight="700" fill="#67429B">Ingest r7</text>
<text x="1406" y="1018" font-size="16" font-weight="400" fill="#172C4B">모델·프롬프트 버전</text>
<path d="M1500 1223 V1049" fill="none" stroke="#8054A3" stroke-width="2.5" stroke-linejoin="round" marker-end="url(#arrow-relation)"/>
<text x="1510" y="1136.0" font-size="14" font-weight="400" fill="#67429B">사용</text>
<rect x="1390" y="1223" width="222" height="100" rx="6" fill="#FFFFFF" stroke="#D8C9E9"/>
<text x="1406" y="1257" font-size="20" font-weight="700" fill="#67429B">Source e3</text>
<text x="1406" y="1292" font-size="16" font-weight="400" fill="#172C4B">원문 위치·해시</text>
<text x="1390" y="1368" font-size="20" font-weight="700" fill="#67429B">Log · 실행 이력</text>
<text x="1390" y="1400" font-size="16" font-weight="400" fill="#172C4B">주체 · 시각 · 입력 · 버전</text>
<rect x="48" y="1458" width="1584" height="88" rx="6" fill="#F5F8FC" stroke="#CDD9E7"/>
<text x="68" y="1490" font-size="20" font-weight="700" fill="#172C4B">Schema · 위키 구조와 작성·갱신 규칙</text>
<text x="68" y="1525" font-size="17" font-weight="400" fill="#526A86">전 계층의 지식 반영·질의·점검에 적용</text>
<text x="850" y="1490" font-size="20" font-weight="700" fill="#172C4B">Lint · 지식 정합성 점검</text>
<text x="850" y="1525" font-size="17" font-weight="400" fill="#526A86">상충 · 오래된 주장 · 누락된 연결을 찾아 갱신</text>
<path d="M68 1595 H116" fill="none" stroke="#B35C00" stroke-width="2.5" stroke-linejoin="round" marker-end="url(#arrow-ingest)"/>
<text x="130" y="1601" font-size="18" font-weight="700" fill="#B35C00">수집·지식 반영</text>
<path d="M510 1595 H558" fill="none" stroke="#245CC5" stroke-width="2.5" stroke-linejoin="round" marker-end="url(#arrow-query)"/>
<text x="572" y="1601" font-size="18" font-weight="700" fill="#245CC5">조회·응답</text>
<path d="M930 1595 H978" fill="none" stroke="#8054A3" stroke-width="2.5" stroke-linejoin="round" marker-end="url(#arrow-relation)"/>
<text x="992" y="1601" font-size="18" font-weight="700" fill="#8054A3">근거·관계·계보</text>
</g></svg>
