<svg xmlns="http://www.w3.org/2000/svg" width="1760" height="2450" viewBox="0 0 1760 2450" role="img" aria-labelledby="title desc"><title id="title">L1 → L3 · 지식 정제 · 추출과 통합</title><desc id="desc">L1부터 L3까지 한 장. 01 세션 증분을 Worker가 청킹·입력 조립·AI 추출·서버 검증·반영으로 정제한다. L3 현재 주장의 BM25 후보를 입력 조립에 되돌리고 출력 오류는 같은 청크를 다시 보낸다. 관계만 실패한 반영은 주장을 반영하고 관계를 통합 대기함에 넘긴다. 02 통합 전 L3에는 같은 subject·scope에 current 주장 A·B가 함께 남고 제안 D와 대기함의 관계가 있다. 03 Consolidation Job이 gather → model → validate → publish 네 Step으로 관계만 판단해 자동 반영한다. Step별 상태를 따로 기록하고 실패한 Step부터 재시도한다. 04 Wiki Page 새 Version은 현재 주장만 나열하고, 클릭한 주장의 리니지 패널이 B가 A를 대체한 관계와 이유를 보여준다. 검토의 relation reject는 정정 Version을 발행하고 거절을 기억해 재제안을 막는다. Consolidation·리니지 패널·relation reject는 설계이며 미구현이다. NVIDIA → Alibaba 예시는 합성이다.</desc><defs><marker id="arrow-ingest" markerWidth="9" markerHeight="9" refX="7" refY="4.5" orient="auto-start-reverse" markerUnits="userSpaceOnUse"><path d="M1 1 L7 4.5 L1 8" fill="none" stroke="#B35C00" stroke-width="2"/></marker><marker id="arrow-query" markerWidth="9" markerHeight="9" refX="7" refY="4.5" orient="auto-start-reverse" markerUnits="userSpaceOnUse"><path d="M1 1 L7 4.5 L1 8" fill="none" stroke="#245CC5" stroke-width="2"/></marker><marker id="arrow-ops" markerWidth="9" markerHeight="9" refX="7" refY="4.5" orient="auto-start-reverse" markerUnits="userSpaceOnUse"><path d="M1 1 L7 4.5 L1 8" fill="none" stroke="#68778B" stroke-width="2"/></marker><marker id="arrow-relation" markerWidth="9" markerHeight="9" refX="7" refY="4.5" orient="auto-start-reverse" markerUnits="userSpaceOnUse"><path d="M1 1 L7 4.5 L1 8" fill="none" stroke="#8054A3" stroke-width="2"/></marker></defs><g font-family="Noto Sans KR, sans-serif"><rect width="1760" height="2450" fill="#FFFFFF"/>
<text x="40" y="42" font-size="16" font-weight="700" fill="#526A86">AGENT WIKI / ARCHITECTURE</text>
<text x="40" y="98" font-size="34" font-weight="700" fill="#172C4B">L1 → L3 · 지식 정제 · 추출과 통합</text>
<path d="M40 137 H1720" stroke="#172C4B" stroke-width="2"/>
<path d="M1100 80 H1148" fill="none" stroke="#B35C00" stroke-width="2.5" stroke-linejoin="round" marker-end="url(#arrow-ingest)"/>
<text x="1162" y="86" font-size="16" font-weight="700" fill="#B35C00">정제·반영</text>
<path d="M1290 80 H1338" fill="none" stroke="#B35C00" stroke-width="2.5" stroke-linejoin="round" stroke-dasharray="6 5" marker-end="url(#arrow-ingest)"/>
<text x="1352" y="86" font-size="16" font-weight="700" fill="#B35C00">지연·재시도</text>
<path d="M1500 80 H1548" fill="none" stroke="#245CC5" stroke-width="2.5" stroke-linejoin="round" marker-end="url(#arrow-query)"/>
<text x="1562" y="86" font-size="16" font-weight="700" fill="#245CC5">조회·읽기</text>
<path d="M1100 112 H1148" fill="none" stroke="#8054A3" stroke-width="2.5" stroke-linejoin="round" marker-end="url(#arrow-relation)"/>
<text x="1162" y="118" font-size="16" font-weight="700" fill="#8054A3">대체 관계</text>
<path d="M1290 112 H1338" fill="none" stroke="#68778B" stroke-width="2.5" stroke-linejoin="round" stroke-dasharray="6 5" marker-end="url(#arrow-ops)"/>
<text x="1352" y="118" font-size="16" font-weight="700" fill="#68778B">기록·기준</text>
<rect x="1500" y="101" width="48" height="22" rx="6" fill="#FFFFFF" stroke="#596679" stroke-dasharray="10 6" stroke-width="2.5"/>
<text x="1562" y="118" font-size="16" font-weight="700" fill="#596679">설계 · 미구현</text>
<text x="40" y="182" font-size="24" font-weight="700" fill="#172C4B">01 · L1 · Raw Sources → L2 · Curation · 청크 추출 · 기존 구현의 요약</text>
<rect x="40" y="210" width="600" height="160" rx="6" fill="#D4EDE4" stroke="#74AA98"/>
<text x="60" y="252" font-size="20" font-weight="700" fill="#172C4B">L1 · 세션 증분 · 고정 처리 범위</text>
<svg xmlns="http://www.w3.org/2000/svg" width="24" height="24" viewBox="0 0 24 24" fill="none" stroke="currentColor" stroke-width="2" stroke-linecap="round" stroke-linejoin="round" x="60" y="270" color="#172C4B">
  <path d="M19 4v16h-12a2 2 0 0 1 -2 -2v-12a2 2 0 0 1 2 -2h12z" />
  <path d="M19 16h-12a2 2 0 0 0 -2 2" />
  <path d="M9 8h6" />
</svg>
<text x="94" y="290" font-size="18" font-weight="400" fill="#172C4B">Codex 09:00 “정제 Provider는 NVIDIA로 하자.”</text>
<text x="60" y="321" font-size="18" font-weight="400" fill="#172C4B">Claude 10:00 “호출 지연 때문에 Alibaba로 바꾸자.”</text>
<text x="60" y="352" font-size="18" font-weight="400" fill="#172C4B">불변 원문 · 텍스트만 정제 · 합성 예시</text>
<path d="M340 370 V430" fill="none" stroke="#B35C00" stroke-width="2.5" stroke-linejoin="round" marker-end="url(#arrow-ingest)"/>
<rect x="40" y="430" width="1680" height="560" rx="6" fill="#F1F2F4" stroke="#596679" stroke-width="2.5"/>
<path d="M46 430 H1714 Q1720 430 1720 436 V484 H40 V436 Q40 430 46 430" fill="#344256"/>
<text x="64" y="466" font-size="24" font-weight="700" fill="#FFFFFF">agent-wiki-worker · L2 · Curation · 청크당 모델 호출 1회 · 같은 세션은 순차</text>
<rect x="64" y="510" width="290" height="170" rx="6" fill="#FDE7C2" stroke="#C89A55"/>
<text x="84" y="552" font-size="20" font-weight="700" fill="#172C4B">청킹</text>
<svg xmlns="http://www.w3.org/2000/svg" width="24" height="24" viewBox="0 0 24 24" fill="none" stroke="currentColor" stroke-width="2" stroke-linecap="round" stroke-linejoin="round" x="84" y="570" color="#172C4B">
  <path d="M5 5m0 1a1 1 0 0 1 1 -1h12a1 1 0 0 1 1 1v12a1 1 0 0 1 -1 1h-12a1 1 0 0 1 -1 -1z" />
  <path d="M9 9h6v6h-6z" />
  <path d="M3 10h2" />
  <path d="M3 14h2" />
  <path d="M10 3v2" />
  <path d="M14 3v2" />
  <path d="M21 10h-2" />
  <path d="M21 14h-2" />
  <path d="M14 21v-2" />
  <path d="M10 21v-2" />
</svg>
<text x="118" y="590" font-size="18" font-weight="400" fill="#172C4B">요청·도구 묶음 경계 우선</text>
<text x="84" y="621" font-size="18" font-weight="400" fill="#172C4B">예산 초과는 재귀 분할</text>
<path d="M354 595 H390" fill="none" stroke="#B35C00" stroke-width="2.5" stroke-linejoin="round" marker-end="url(#arrow-ingest)"/>
<rect x="390" y="510" width="290" height="170" rx="6" fill="#FDE7C2" stroke="#C89A55"/>
<text x="410" y="552" font-size="20" font-weight="700" fill="#172C4B">입력 조립</text>
<svg xmlns="http://www.w3.org/2000/svg" width="24" height="24" viewBox="0 0 24 24" fill="none" stroke="currentColor" stroke-width="2" stroke-linecap="round" stroke-linejoin="round" x="410" y="570" color="#172C4B">
  <path d="M19 4v16h-12a2 2 0 0 1 -2 -2v-12a2 2 0 0 1 2 -2h12z" />
  <path d="M19 16h-12a2 2 0 0 0 -2 2" />
  <path d="M9 8h6" />
</svg>
<text x="444" y="590" font-size="18" font-weight="400" fill="#172C4B">새 청크 + 세션 맥락</text>
<text x="410" y="621" font-size="18" font-weight="400" fill="#172C4B">+ 기존 주장 최대 6개</text>
<path d="M680 595 H716" fill="none" stroke="#B35C00" stroke-width="2.5" stroke-linejoin="round" marker-end="url(#arrow-ingest)"/>
<rect x="716" y="510" width="290" height="170" rx="6" fill="#EBDFFA" stroke="#AA8ACA"/>
<text x="736" y="552" font-size="20" font-weight="700" fill="#172C4B">AI · 추출·관계 판단</text>
<svg xmlns="http://www.w3.org/2000/svg" fill="none" viewBox="0 0 100 100" x="736" y="570" width="24" height="24" color="#172C4B"><g clip-path="url(#openai-736-570-a)"><path fill="#193718" d="M93.06 40.937c1.25-3.438 1.563-6.875 1.25-10.313-.312-3.437-1.562-6.875-3.125-10-2.812-4.687-6.875-8.437-11.562-10.625-5-2.187-10.313-2.812-15.625-1.562-2.5-2.5-5.313-4.688-8.438-6.25S48.685-.001 45.248-.001c-5.313 0-10.625 1.563-15 4.688a24.16 24.16 0 0 0-9.063 12.5c-3.75.937-6.875 2.5-10 4.374-2.812 2.188-5 5-6.875 7.813-2.812 4.688-3.75 10-3.125 15.313a27.2 27.2 0 0 0 6.25 14.375c-1.25 3.437-1.562 6.874-1.25 10.312s1.563 6.875 3.125 10c2.813 4.688 6.875 8.438 11.563 10.625 5 2.188 10.312 2.813 15.625 1.563 2.5 2.5 5.312 4.687 8.437 6.25s6.875 2.187 10.313 2.187c5.312 0 10.625-1.562 15-4.687s7.5-7.5 9.062-12.5c3.438-.626 6.875-2.188 9.688-4.376 2.812-2.187 5.312-4.687 6.875-7.812 2.812-4.687 3.75-10 3.125-15.312-.625-5.313-2.5-10.313-5.938-14.375m-37.5 52.5c-5 0-8.75-1.563-12.187-4.376 0 0 .312-.312.625-.312l20-11.562c.625-.313.937-.626 1.25-1.25.312-.626.312-.938.312-1.563V46.249l8.438 5v23.125c.312 10.938-8.438 19.063-18.438 19.063M15.248 76.249c-2.188-3.75-3.125-8.125-2.188-12.5 0 0 .313.312.625.312l20 11.563c.625.313.938.313 1.563.313s1.25 0 1.562-.313l24.375-14.062v9.687L40.873 83.124c-4.375 2.5-9.375 3.125-14.063 1.875-5-1.25-9.062-4.375-11.562-8.75M9.935 32.812c2.188-3.75 5.625-6.563 9.688-8.125v23.75c0 .625 0 1.25.312 1.562.313.625.625.938 1.25 1.25L45.56 65.311l-8.437 5-20-11.562c-4.375-2.5-7.5-6.562-8.75-11.25s-.938-10.312 1.562-14.687m69.063 15.937L54.623 34.687l8.437-5 20 11.562c3.125 1.875 5.625 4.375 7.188 7.5s2.5 6.563 2.187 10.313c-.312 3.437-1.562 6.874-3.75 9.687s-5 5-8.437 6.25v-23.75c0-.625 0-1.25-.313-1.562 0 0-.312-.625-.937-.938m8.437-12.5s-.312-.312-.625-.312l-20-11.563c-.625-.312-.937-.312-1.562-.312s-1.25 0-1.563.312L39.31 38.437v-9.688l20.313-11.875c3.125-1.875 6.562-2.5 10.312-2.5 3.438 0 6.875 1.25 10 3.437 2.813 2.188 5.313 5 6.563 8.125s1.562 6.876.937 10.313m-52.5 17.5-8.437-5V25.311c0-3.437.937-7.187 2.812-10 1.875-3.124 4.688-5.312 7.813-6.874 3.125-1.563 6.875-2.188 10.312-1.563 3.438.313 6.875 1.875 9.688 4.063 0 0-.313.312-.625.312l-20 11.562c-.625.313-.938.625-1.25 1.25s-.313.938-.313 1.563zm4.375-10 10.938-6.25 10.937 6.25v12.5l-10.937 6.25-10.938-6.25z" /></g><defs><clipPath id="openai-736-570-a"><path fill="#fff" d="M0 0h100v100H0z" /></clipPath></defs></svg>
<text x="770" y="590" font-size="18" font-weight="400" fill="#172C4B">주장 · 근거 recordId</text>
<text x="736" y="621" font-size="18" font-weight="400" fill="#172C4B">supersedes · retracts · …</text>
<path d="M1006 595 H1042" fill="none" stroke="#B35C00" stroke-width="2.5" stroke-linejoin="round" marker-end="url(#arrow-ingest)"/>
<rect x="1042" y="510" width="290" height="170" rx="6" fill="#FDE7C2" stroke="#C89A55"/>
<text x="1062" y="552" font-size="20" font-weight="700" fill="#172C4B">서버 검증</text>
<svg xmlns="http://www.w3.org/2000/svg" width="24" height="24" viewBox="0 0 24 24" fill="none" stroke="currentColor" stroke-width="2" stroke-linecap="round" stroke-linejoin="round" x="1062" y="570" color="#172C4B">
  <path d="M9 5h-2a2 2 0 0 0 -2 2v12a2 2 0 0 0 2 2h10a2 2 0 0 0 2 -2v-12a2 2 0 0 0 -2 -2h-2" />
  <path d="M9 3m0 2a2 2 0 0 1 2 -2h2a2 2 0 0 1 2 2v0a2 2 0 0 1 -2 2h-2a2 2 0 0 1 -2 -2z" />
  <path d="M9 14l2 2l4 -4" />
</svg>
<text x="1096" y="590" font-size="18" font-weight="400" fill="#172C4B">인용 · 범위 · 권한 · Version</text>
<text x="1062" y="621" font-size="18" font-weight="400" fill="#172C4B">순환 · 출발 상태 검사</text>
<path d="M1332 595 H1368" fill="none" stroke="#B35C00" stroke-width="2.5" stroke-linejoin="round" marker-end="url(#arrow-ingest)"/>
<rect x="1368" y="510" width="290" height="170" rx="6" fill="#D4EDE4" stroke="#74AA98"/>
<text x="1388" y="552" font-size="20" font-weight="700" fill="#172C4B">반영 · publish</text>
<svg xmlns="http://www.w3.org/2000/svg" fill="none" viewBox="0 0 100 100" x="1388" y="570" width="24" height="24" color="#172C4B"><path fill="#000" d="M98.472 59.902c-.582-1.766-2.105-2.995-4.074-3.29-.929-.14-1.992-.08-3.251.18-2.194.454-3.821.627-5.009.66 4.483-7.59 8.129-16.246 10.227-24.393 3.394-13.175 1.58-19.177-.539-21.892C90.218 3.981 82.036.121 72.166.003c-5.267-.065-9.89.978-12.3 1.728-2.246-.398-4.66-.62-7.193-.66-4.749-.076-8.944.962-12.529 3.095a57 57 0 0 0-8.848-2.227C22.644.514 15.672 1.624 10.57 5.237c-6.175 4.375-9.038 11.975-8.509 22.59.168 3.37 2.048 13.625 5.009 23.35 1.701 5.59 3.515 10.232 5.392 13.798 2.661 5.058 5.51 8.035 8.706 9.105 1.792.599 5.048 1.018 8.472-1.842.434.527 1.013 1.05 1.782 1.537.976.618 2.17 1.122 3.361 1.42 4.296 1.078 8.319.808 11.752-.701.02.612.037 1.197.05 1.702.023.82.046 1.623.076 2.374.203 5.08.548 9.029 1.57 11.792.055.152.13.384.21.63.51 1.564 1.361 4.182 3.529 6.232C54.215 99.35 56.929 100 59.415 100c1.247 0 2.437-.164 3.48-.388 3.72-.8 7.944-2.017 11-6.38 2.889-4.125 4.293-10.337 4.547-20.126l.093-.793.06-.517.68.06.176.012c3.788.173 8.42-.633 11.265-1.958 2.248-1.046 9.452-4.86 7.756-10.008" /><path fill="#336791" d="M91.994 60.903c-11.264 2.33-12.038-1.494-12.038-1.494C91.848 41.713 96.82 19.251 92.53 13.753 80.825-1.243 60.564 5.85 60.226 6.033l-.109.02c-2.225-.463-4.716-.74-7.515-.785-5.096-.084-8.963 1.34-11.896 3.57 0 0-36.145-14.93-34.463 18.78.357 7.17 10.25 54.262 22.05 40.039 4.313-5.202 8.48-9.6 8.48-9.6 2.07 1.38 4.547 2.082 7.145 1.83l.202-.172c-.063.646-.034 1.277.08 2.025-3.04 3.406-2.146 4.004-8.223 5.258-6.149 1.271-2.537 3.533-.178 4.125 2.859.717 9.474 1.732 13.943-4.542l-.178.716c1.19.957 2.027 6.222 1.887 10.996-.14 4.773-.234 8.05.704 10.61.94 2.56 1.874 8.32 9.863 6.604 6.674-1.435 10.134-5.152 10.615-11.353.341-4.407 1.114-3.756 1.163-7.697l.62-1.865c.715-5.976.113-7.904 4.225-7.007l1 .088c3.027.138 6.988-.488 9.313-1.572 5.007-2.33 7.976-6.22 3.04-5.198" /><path fill="#fff" d="M42.821 30.825c-1.015-.142-1.934-.011-2.4.342a.88.88 0 0 0-.364.587c-.058.42.235.884.415 1.123.51.678 1.255 1.143 1.992 1.246q.16.022.319.022c1.229 0 2.347-.96 2.445-1.668.123-.887-1.161-1.479-2.407-1.652m33.627.028c-.097-.696-1.33-.894-2.502-.73-1.17.162-2.303.692-2.209 1.389.076.542 1.052 1.467 2.207 1.467q.146 0 .296-.02c.77-.108 1.337-.599 1.605-.882.41-.431.647-.912.603-1.224" /><path fill="#fff" d="M95.743 60.639c-.43-1.303-1.812-1.721-4.109-1.246-6.82 1.411-9.262.434-10.063-.158 5.3-8.098 9.66-17.886 12.013-27.018 1.114-4.326 1.73-8.343 1.78-11.618.056-3.594-.555-6.235-1.814-7.848-5.076-6.505-12.526-9.993-21.544-10.09-6.2-.069-11.437 1.522-12.453 1.97a31 31 0 0 0-7.008-.903c-4.654-.076-8.677 1.042-12.007 3.32a53.5 53.5 0 0 0-9.759-2.566c-7.905-1.277-14.187-.31-18.67 2.875-5.35 3.8-7.819 10.593-7.34 20.19.16 3.229 1.995 13.161 4.89 22.673 3.811 12.52 7.954 19.607 12.313 21.065.51.17 1.098.29 1.747.29 1.59 0 3.54-.719 5.568-3.164a201 201 0 0 1 7.674-8.707 12.34 12.34 0 0 0 5.52 1.489l.014.151q-.497.594-.973 1.206c-1.334 1.698-1.612 2.052-5.906 2.938-1.221.253-4.465.923-4.513 3.204-.052 2.491 3.835 3.538 4.277 3.648 1.543.388 3.03.579 4.448.579 3.447 0 6.482-1.136 8.906-3.335-.074 8.882.295 17.634 1.359 20.3.87 2.183 2.999 7.519 9.72 7.518.986 0 2.072-.115 3.266-.372 7.015-1.508 10.061-4.617 11.24-11.47.63-3.664 1.712-12.411 2.221-17.103 1.074.336 2.457.49 3.952.49 3.118 0 6.715-.665 8.972-1.715 2.534-1.18 7.108-4.077 6.279-6.593M79.038 28.933c-.024 1.385-.214 2.643-.415 3.956-.217 1.411-.442 2.87-.498 4.642-.056 1.725.16 3.517.367 5.251.42 3.502.85 7.107-.817 10.664q-.415-.739-.738-1.522c-.208-.504-.658-1.313-1.28-2.433-2.424-4.358-8.1-14.565-5.194-18.73.865-1.24 3.061-2.514 8.575-1.828M72.355 5.467c8.08.179 14.472 3.21 18.997 9.009 3.471 4.447-.35 24.686-11.415 42.145l-.336-.424-.14-.175c2.86-4.735 2.3-9.42 1.802-13.574-.204-1.704-.397-3.314-.348-4.827.05-1.602.262-2.977.467-4.306.25-1.638.506-3.333.436-5.332.053-.21.074-.457.046-.75-.18-1.917-2.361-7.652-6.808-12.842-2.432-2.839-5.98-6.016-10.822-8.159 2.083-.433 4.931-.836 8.12-.765M27.14 66.622c-2.234 2.694-3.777 2.177-4.285 2.008-3.306-1.106-7.143-8.114-10.526-19.227-2.927-9.615-4.637-19.285-4.773-21.996-.427-8.575 1.646-14.551 6.162-17.763 7.35-5.226 19.432-2.098 24.287-.511-.07.069-.142.133-.211.203-7.967 8.069-7.778 21.854-7.759 22.697 0 .325.027.785.064 1.418.137 2.319.392 6.634-.29 11.521-.633 4.541.763 8.986 3.83 12.195q.472.494.991.937a205 205 0 0 0-7.49 8.518m8.514-11.391c-2.471-2.587-3.594-6.184-3.08-9.872.72-5.162.454-9.658.311-12.073-.02-.338-.038-.635-.048-.868 1.164-1.035 6.558-3.933 10.404-3.05 1.755.404 2.825 1.603 3.27 3.664 2.301 10.674.304 15.122-1.3 18.697-.33.737-.643 1.433-.91 2.153l-.207.557c-.523 1.407-1.01 2.716-1.312 3.959-2.628-.008-5.184-1.134-7.128-3.168m.404 14.394c-.768-.192-1.458-.526-1.863-.803.339-.16.94-.377 1.984-.593 5.052-1.042 5.832-1.778 7.535-3.947.391-.498.834-1.061 1.447-1.748.914-1.026 1.332-.852 2.09-.537.613.254 1.211 1.026 1.454 1.875.114.401.243 1.163-.178 1.755-3.56 4.997-8.745 4.933-12.47 3.998m26.436 24.668c-6.18 1.328-8.368-1.834-9.81-5.448-.93-2.334-1.388-12.856-1.063-24.477a1.4 1.4 0 0 0-.06-.444 6 6 0 0 0-.173-.821c-.483-1.691-1.659-3.106-3.07-3.692-.56-.233-1.589-.66-2.825-.343.264-1.09.72-2.32 1.217-3.651l.208-.56c.234-.632.528-1.287.838-1.98 1.68-3.74 3.978-8.863 1.483-20.436-.935-4.335-4.056-6.452-8.789-5.96-2.836.294-5.432 1.442-6.727 2.1-.278.141-.532.278-.77.41.361-4.367 1.726-12.53 6.832-17.694C43 8.045 47.281 6.439 52.498 6.526c10.28.168 16.871 5.458 20.591 9.866 3.206 3.799 4.942 7.625 5.635 9.69-5.21-.532-8.753.499-10.55 3.074-3.907 5.601 2.138 16.473 5.044 21.698.533.957.993 1.785 1.137 2.136.946 2.3 2.171 3.835 3.065 4.955.275.343.54.677.743.967-1.578.457-4.412 1.51-4.154 6.779-.208 2.643-1.69 15.02-2.442 19.392-.994 5.776-3.114 7.928-9.074 9.21m25.795-29.6c-1.614.751-4.314 1.315-6.879 1.436-2.833.133-4.275-.319-4.615-.596-.159-3.283 1.06-3.626 2.35-3.99.202-.056.4-.112.59-.179q.179.146.391.287c2.277 1.507 6.339 1.67 12.073.483l.063-.013c-.774.726-2.097 1.699-3.974 2.572" /></svg>
<text x="1422" y="590" font-size="18" font-weight="400" fill="#172C4B">주장·근거·관계 한 트랜잭션</text>
<text x="1388" y="621" font-size="18" font-weight="400" fill="#172C4B">바뀐 주제 페이지 새 Version</text>
<rect x="390" y="760" width="290" height="170" rx="6" fill="#DBEAFE" stroke="#7EA6D8"/>
<text x="410" y="802" font-size="20" font-weight="700" fill="#172C4B">L3 참고 · 후보</text>
<svg xmlns="http://www.w3.org/2000/svg" width="24" height="24" viewBox="0 0 24 24" fill="none" stroke="currentColor" stroke-width="2" stroke-linecap="round" stroke-linejoin="round" x="410" y="820" color="#172C4B">
  <path d="M19 4v16h-12a2 2 0 0 1 -2 -2v-12a2 2 0 0 1 2 -2h12z" />
  <path d="M19 16h-12a2 2 0 0 0 -2 2" />
  <path d="M9 8h6" />
</svg>
<text x="444" y="840" font-size="18" font-weight="400" fill="#172C4B">BM25 후보 24 → 규칙 재정렬</text>
<text x="410" y="871" font-size="18" font-weight="400" fill="#172C4B">대상·범위·별칭 가중 · 최대 6개</text>
<text x="410" y="902" font-size="18" font-weight="400" fill="#172C4B">유사도 ≠ 동일 주장</text>
<path d="M535 760 V680" fill="none" stroke="#245CC5" stroke-width="2.5" stroke-linejoin="round" marker-end="url(#arrow-query)"/>
<text x="550" y="728" font-size="16" font-weight="700" fill="#245CC5">선택 후보</text>
<path d="M535 1060 V930" fill="none" stroke="#245CC5" stroke-width="2.5" stroke-linejoin="round" marker-end="url(#arrow-query)"/>
<text x="550" y="1030" font-size="16" font-weight="700" fill="#245CC5">Workspace 현재 주장 읽기</text>
<rect x="1042" y="760" width="290" height="170" rx="6" fill="#E3E7ED" stroke="#929EAD"/>
<text x="1062" y="802" font-size="20" font-weight="700" fill="#172C4B">Retry · 출력 오류만</text>
<svg xmlns="http://www.w3.org/2000/svg" width="24" height="24" viewBox="0 0 24 24" fill="none" stroke="currentColor" stroke-width="2" stroke-linecap="round" stroke-linejoin="round" x="1062" y="820" color="#172C4B">
  <path d="M9 5h-2a2 2 0 0 0 -2 2v12a2 2 0 0 0 2 2h10a2 2 0 0 0 2 -2v-12a2 2 0 0 0 -2 -2h-2" />
  <path d="M9 3m0 2a2 2 0 0 1 2 -2h2a2 2 0 0 1 2 2v0a2 2 0 0 1 -2 2h-2a2 2 0 0 1 -2 -2z" />
  <path d="M9 14l2 2l4 -4" />
</svg>
<text x="1096" y="840" font-size="18" font-weight="400" fill="#172C4B">같은 청크 새 응답 · 캐시 비움</text>
<text x="1062" y="871" font-size="18" font-weight="400" fill="#172C4B">3회 연속 → 확인 필요</text>
<text x="1062" y="902" font-size="18" font-weight="400" fill="#172C4B">성공 청크·처리 위치 유지</text>
<path d="M1187 680 V722 H861 V680" fill="none" stroke="#B35C00" stroke-width="2.5" stroke-linejoin="round" stroke-dasharray="6 5" marker-end="url(#arrow-ingest)"/>
<text x="1200" y="712" font-size="16" font-weight="700" fill="#B35C00">검증 실패 → 새 응답</text>
<path d="M1390 680 V1060" fill="none" stroke="#B35C00" stroke-width="2.5" stroke-linejoin="round" marker-end="url(#arrow-ingest)"/>
<text x="1406" y="1030" font-size="16" font-weight="700" fill="#B35C00">검증된 주장·관계 → L3</text>
<path d="M1600 680 V1060" fill="none" stroke="#B35C00" stroke-width="2.5" stroke-linejoin="round" stroke-dasharray="6 5" marker-end="url(#arrow-ingest)"/>
<text x="1616" y="900" font-size="16" font-weight="700" fill="#B35C00">관계만 지연</text>
<rect x="40" y="1060" width="1680" height="330" rx="6" fill="#F1F2F4" stroke="#596679" stroke-width="2.5"/>
<path d="M46 1060 H1714 Q1720 1060 1720 1066 V1114 H40 V1066 Q40 1060 46 1060" fill="#344256"/>
<text x="64" y="1096" font-size="24" font-weight="700" fill="#FFFFFF">02 · L3 · Knowledge · 통합 전 · 같은 subject·scope에 current가 둘 남아 있다</text>
<rect x="64" y="1130" width="270" height="130" rx="6" fill="#E3E7ED" stroke="#929EAD"/>
<text x="84" y="1172" font-size="20" font-weight="700" fill="#172C4B">Claim D · proposed</text>
<svg xmlns="http://www.w3.org/2000/svg" width="24" height="24" viewBox="0 0 24 24" fill="none" stroke="currentColor" stroke-width="2" stroke-linecap="round" stroke-linejoin="round" x="84" y="1190" color="#172C4B">
  <path d="M9 5h-2a2 2 0 0 0 -2 2v12a2 2 0 0 0 2 2h10a2 2 0 0 0 2 -2v-12a2 2 0 0 0 -2 -2h-2" />
  <path d="M9 3m0 2a2 2 0 0 1 2 -2h2a2 2 0 0 1 2 2v0a2 2 0 0 1 -2 2h-2a2 2 0 0 1 -2 -2z" />
  <path d="M9 14l2 2l4 -4" />
</svg>
<text x="118" y="1210" font-size="18" font-weight="400" fill="#172C4B">“Qwen도 괜찮을까?”</text>
<text x="84" y="1241" font-size="18" font-weight="400" fill="#172C4B">검토 의견 · 미해결</text>
<rect x="364" y="1130" width="270" height="130" rx="6" fill="#D4EDE4" stroke="#74AA98"/>
<text x="384" y="1172" font-size="20" font-weight="700" fill="#172C4B">Claim C · current</text>
<svg xmlns="http://www.w3.org/2000/svg" width="24" height="24" viewBox="0 0 24 24" fill="none" stroke="currentColor" stroke-width="2" stroke-linecap="round" stroke-linejoin="round" x="384" y="1190" color="#172C4B">
  <path d="M19 4v16h-12a2 2 0 0 1 -2 -2v-12a2 2 0 0 1 2 -2h12z" />
  <path d="M19 16h-12a2 2 0 0 0 -2 2" />
  <path d="M9 8h6" />
</svg>
<text x="418" y="1210" font-size="18" font-weight="400" fill="#172C4B">API 동시 실행 = 5</text>
<text x="384" y="1241" font-size="18" font-weight="400" fill="#172C4B">concurrency · 별도 묶음</text>
<text x="64" y="1310" font-size="16" font-weight="400" fill="#172C4B">상태는 원래 state와 관계로 계산 · 관계가 없으면 이력도 없다</text>
<rect x="700" y="1130" width="700" height="200" rx="6" fill="#FFFFFF" stroke="#929EAD"/>
<text x="720" y="1160" font-size="16" font-weight="700" fill="#172C4B">subject ai-provider · scope curation · current 2개 → 통합 대상</text>
<rect x="720" y="1180" width="320" height="130" rx="6" fill="#D4EDE4" stroke="#74AA98"/>
<text x="740" y="1222" font-size="20" font-weight="700" fill="#172C4B">Claim A · current</text>
<svg xmlns="http://www.w3.org/2000/svg" width="24" height="24" viewBox="0 0 24 24" fill="none" stroke="currentColor" stroke-width="2" stroke-linecap="round" stroke-linejoin="round" x="740" y="1240" color="#172C4B">
  <path d="M19 4v16h-12a2 2 0 0 1 -2 -2v-12a2 2 0 0 1 2 -2h12z" />
  <path d="M19 16h-12a2 2 0 0 0 -2 2" />
  <path d="M9 8h6" />
</svg>
<text x="774" y="1260" font-size="18" font-weight="400" fill="#172C4B">정제 Provider = NVIDIA</text>
<text x="740" y="1291" font-size="18" font-weight="400" fill="#172C4B">사용자 결정 · 09:00 근거</text>
<rect x="1060" y="1180" width="320" height="130" rx="6" fill="#D4EDE4" stroke="#74AA98"/>
<text x="1080" y="1222" font-size="20" font-weight="700" fill="#172C4B">Claim B · current</text>
<svg xmlns="http://www.w3.org/2000/svg" width="24" height="24" viewBox="0 0 24 24" fill="none" stroke="currentColor" stroke-width="2" stroke-linecap="round" stroke-linejoin="round" x="1080" y="1240" color="#172C4B">
  <path d="M19 4v16h-12a2 2 0 0 1 -2 -2v-12a2 2 0 0 1 2 -2h12z" />
  <path d="M19 16h-12a2 2 0 0 0 -2 2" />
  <path d="M9 8h6" />
</svg>
<text x="1114" y="1260" font-size="18" font-weight="400" fill="#172C4B">정제 Provider = Alibaba</text>
<text x="1080" y="1291" font-size="18" font-weight="400" fill="#172C4B">사용자 결정 · 이유: 호출 지연</text>
<rect x="1430" y="1130" width="266" height="190" rx="6" fill="#FDE7C2" stroke="#C89A55" stroke-dasharray="10 6" stroke-width="2.5"/>
<text x="1450" y="1172" font-size="20" font-weight="700" fill="#172C4B">통합 대기함 · 지연된 관계</text>
<svg xmlns="http://www.w3.org/2000/svg" width="24" height="24" viewBox="0 0 24 24" fill="none" stroke="currentColor" stroke-width="2" stroke-linecap="round" stroke-linejoin="round" x="1450" y="1190" color="#172C4B">
  <path d="M7 18a4.6 4.4 0 0 1 0 -9a5 4.5 0 0 1 11 2h1a3.5 3.5 0 0 1 0 7h-1" />
  <path d="M9 15l3 -3l3 3" />
  <path d="M12 12l0 9" />
</svg>
<text x="1484" y="1210" font-size="18" font-weight="400" fill="#172C4B">B supersedes A · 409</text>
<text x="1450" y="1241" font-size="18" font-weight="400" fill="#172C4B">대상 Version 변경 (409)</text>
<text x="1450" y="1272" font-size="18" font-weight="400" fill="#172C4B">주장은 반영 · 관계만 대기</text>
<text x="1450" y="1303" font-size="18" font-weight="400" fill="#172C4B">폐기 없음 · 사람 대기 없음</text>
<path d="M520 1390 V1440" fill="none" stroke="#B35C00" stroke-width="2.5" stroke-linejoin="round" marker-end="url(#arrow-ingest)"/>
<text x="410" y="1425" font-size="16" font-weight="700" fill="#B35C00">통합 전 주장</text>
<path d="M1563 1320 V1410 H560 V1440" fill="none" stroke="#B35C00" stroke-width="2.5" stroke-linejoin="round" stroke-dasharray="6 5" marker-end="url(#arrow-ingest)"/>
<text x="1580" y="1370" font-size="16" font-weight="700" fill="#B35C00">다음 통합 입력</text>
<rect x="40" y="1440" width="1680" height="510" rx="6" fill="#F1F2F4" stroke="#596679" stroke-width="2.5" stroke-dasharray="10 6"/>
<path d="M46 1440 H1714 Q1720 1440 1720 1446 V1494 H40 V1446 Q40 1440 46 1440" fill="#344256"/>
<text x="64" y="1476" font-size="24" font-weight="700" fill="#FFFFFF">03 · Consolidation Job · 주제별 1회 · 관계만 판단 · 새 주장 없음 · 설계 · 미구현</text>
<rect x="64" y="1540" width="300" height="190" rx="6" fill="#E3E7ED" stroke="#929EAD" stroke-dasharray="10 6" stroke-width="2.5"/>
<text x="84" y="1582" font-size="20" font-weight="700" fill="#172C4B">트리거</text>
<svg xmlns="http://www.w3.org/2000/svg" viewBox="0 0 24 24" x="84" y="1600" width="24" height="24" color="#172C4B" fill="#172C4B">
  <path d="M0 0h24v24H0z" fill="none" />
  <g fill="none" stroke="#111827" stroke-linecap="round" stroke-linejoin="round" stroke-width="2">
    <circle cx="12" cy="12" r="10" />
    <path d="m15 16l-2.414-2.414A2 2 0 0 1 12 12.172V6" />
  </g>
</svg>
<text x="118" y="1620" font-size="18" font-weight="400" fill="#172C4B">cycle 완료 → 주제마다 1회</text>
<text x="84" y="1651" font-size="18" font-weight="400" fill="#172C4B">대기함 관계가 있는 주제 포함</text>
<text x="84" y="1682" font-size="18" font-weight="400" fill="#172C4B">수동 · agent-wiki consolidate</text>
<text x="84" y="1713" font-size="18" font-weight="400" fill="#172C4B">열린 Job은 주제당 1개</text>
<path d="M364 1620 H404" fill="none" stroke="#B35C00" stroke-width="2.5" stroke-linejoin="round" marker-end="url(#arrow-ingest)"/>
<rect x="404" y="1540" width="300" height="190" rx="6" fill="#FDE7C2" stroke="#C89A55" stroke-dasharray="10 6" stroke-width="2.5"/>
<text x="424" y="1582" font-size="20" font-weight="700" fill="#172C4B">gather · 수집</text>
<svg xmlns="http://www.w3.org/2000/svg" width="24" height="24" viewBox="0 0 24 24" fill="none" stroke="currentColor" stroke-width="2" stroke-linecap="round" stroke-linejoin="round" x="424" y="1600" color="#172C4B">
  <path d="M5 5m0 1a1 1 0 0 1 1 -1h12a1 1 0 0 1 1 1v12a1 1 0 0 1 -1 1h-12a1 1 0 0 1 -1 -1z" />
  <path d="M9 9h6v6h-6z" />
  <path d="M3 10h2" />
  <path d="M3 14h2" />
  <path d="M10 3v2" />
  <path d="M14 3v2" />
  <path d="M21 10h-2" />
  <path d="M21 14h-2" />
  <path d="M14 21v-2" />
  <path d="M10 21v-2" />
</svg>
<text x="458" y="1620" font-size="18" font-weight="400" fill="#172C4B">주제 주장 + 대기함 관계</text>
<text x="424" y="1651" font-size="18" font-weight="400" fill="#172C4B">(subject, scope) 묶음 · 상태별</text>
<text x="424" y="1682" font-size="18" font-weight="400" fill="#172C4B">거절 기억 제외 · 모델 호출 없음</text>
<path d="M704 1635 H734" fill="none" stroke="#B35C00" stroke-width="2.5" stroke-linejoin="round" marker-end="url(#arrow-ingest)"/>
<rect x="734" y="1540" width="300" height="190" rx="6" fill="#EBDFFA" stroke="#AA8ACA" stroke-dasharray="10 6" stroke-width="2.5"/>
<text x="754" y="1582" font-size="20" font-weight="700" fill="#172C4B">model · 관계 판단</text>
<svg xmlns="http://www.w3.org/2000/svg" fill="none" viewBox="0 0 100 100" x="754" y="1600" width="24" height="24" color="#172C4B"><g clip-path="url(#openai-754-1600-a)"><path fill="#193718" d="M93.06 40.937c1.25-3.438 1.563-6.875 1.25-10.313-.312-3.437-1.562-6.875-3.125-10-2.812-4.687-6.875-8.437-11.562-10.625-5-2.187-10.313-2.812-15.625-1.562-2.5-2.5-5.313-4.688-8.438-6.25S48.685-.001 45.248-.001c-5.313 0-10.625 1.563-15 4.688a24.16 24.16 0 0 0-9.063 12.5c-3.75.937-6.875 2.5-10 4.374-2.812 2.188-5 5-6.875 7.813-2.812 4.688-3.75 10-3.125 15.313a27.2 27.2 0 0 0 6.25 14.375c-1.25 3.437-1.562 6.874-1.25 10.312s1.563 6.875 3.125 10c2.813 4.688 6.875 8.438 11.563 10.625 5 2.188 10.312 2.813 15.625 1.563 2.5 2.5 5.312 4.687 8.437 6.25s6.875 2.187 10.313 2.187c5.312 0 10.625-1.562 15-4.687s7.5-7.5 9.062-12.5c3.438-.626 6.875-2.188 9.688-4.376 2.812-2.187 5.312-4.687 6.875-7.812 2.812-4.687 3.75-10 3.125-15.312-.625-5.313-2.5-10.313-5.938-14.375m-37.5 52.5c-5 0-8.75-1.563-12.187-4.376 0 0 .312-.312.625-.312l20-11.562c.625-.313.937-.626 1.25-1.25.312-.626.312-.938.312-1.563V46.249l8.438 5v23.125c.312 10.938-8.438 19.063-18.438 19.063M15.248 76.249c-2.188-3.75-3.125-8.125-2.188-12.5 0 0 .313.312.625.312l20 11.563c.625.313.938.313 1.563.313s1.25 0 1.562-.313l24.375-14.062v9.687L40.873 83.124c-4.375 2.5-9.375 3.125-14.063 1.875-5-1.25-9.062-4.375-11.562-8.75M9.935 32.812c2.188-3.75 5.625-6.563 9.688-8.125v23.75c0 .625 0 1.25.312 1.562.313.625.625.938 1.25 1.25L45.56 65.311l-8.437 5-20-11.562c-4.375-2.5-7.5-6.562-8.75-11.25s-.938-10.312 1.562-14.687m69.063 15.937L54.623 34.687l8.437-5 20 11.562c3.125 1.875 5.625 4.375 7.188 7.5s2.5 6.563 2.187 10.313c-.312 3.437-1.562 6.874-3.75 9.687s-5 5-8.437 6.25v-23.75c0-.625 0-1.25-.313-1.562 0 0-.312-.625-.937-.938m8.437-12.5s-.312-.312-.625-.312l-20-11.563c-.625-.312-.937-.312-1.562-.312s-1.25 0-1.563.312L39.31 38.437v-9.688l20.313-11.875c3.125-1.875 6.562-2.5 10.312-2.5 3.438 0 6.875 1.25 10 3.437 2.813 2.188 5.313 5 6.563 8.125s1.562 6.876.937 10.313m-52.5 17.5-8.437-5V25.311c0-3.437.937-7.187 2.812-10 1.875-3.124 4.688-5.312 7.813-6.874 3.125-1.563 6.875-2.188 10.312-1.563 3.438.313 6.875 1.875 9.688 4.063 0 0-.313.312-.625.312l-20 11.562c-.625.313-.938.625-1.25 1.25s-.313.938-.313 1.563zm4.375-10 10.938-6.25 10.937 6.25v12.5l-10.937 6.25-10.938-6.25z" /></g><defs><clipPath id="openai-754-1600-a"><path fill="#fff" d="M0 0h100v100H0z" /></clipPath></defs></svg>
<text x="788" y="1620" font-size="18" font-weight="400" fill="#172C4B">BYOK 1회 · 새 주장 없음</text>
<text x="754" y="1651" font-size="18" font-weight="400" fill="#172C4B">supersedes · retracts · supports</text>
<text x="754" y="1682" font-size="18" font-weight="400" fill="#172C4B">contradicts · leave_unresolved</text>
<path d="M1034 1635 H1064" fill="none" stroke="#B35C00" stroke-width="2.5" stroke-linejoin="round" marker-end="url(#arrow-ingest)"/>
<rect x="1064" y="1540" width="300" height="190" rx="6" fill="#FDE7C2" stroke="#C89A55" stroke-dasharray="10 6" stroke-width="2.5"/>
<text x="1084" y="1582" font-size="20" font-weight="700" fill="#172C4B">validate · 검증</text>
<svg xmlns="http://www.w3.org/2000/svg" width="24" height="24" viewBox="0 0 24 24" fill="none" stroke="currentColor" stroke-width="2" stroke-linecap="round" stroke-linejoin="round" x="1084" y="1600" color="#172C4B">
  <path d="M9 5h-2a2 2 0 0 0 -2 2v12a2 2 0 0 0 2 2h10a2 2 0 0 0 2 -2v-12a2 2 0 0 0 -2 -2h-2" />
  <path d="M9 3m0 2a2 2 0 0 1 2 -2h2a2 2 0 0 1 2 2v0a2 2 0 0 1 -2 2h-2a2 2 0 0 1 -2 -2z" />
  <path d="M9 14l2 2l4 -4" />
</svg>
<text x="1118" y="1620" font-size="18" font-weight="400" fill="#172C4B">publish와 같은 규칙</text>
<text x="1084" y="1651" font-size="18" font-weight="400" fill="#172C4B">범위 · 권한 · Version · 순환</text>
<text x="1084" y="1682" font-size="18" font-weight="400" fill="#172C4B">위반은 코드와 함께 기록</text>
<path d="M1364 1635 H1394" fill="none" stroke="#B35C00" stroke-width="2.5" stroke-linejoin="round" marker-end="url(#arrow-ingest)"/>
<rect x="1394" y="1540" width="300" height="190" rx="6" fill="#D4EDE4" stroke="#74AA98" stroke-dasharray="10 6" stroke-width="2.5"/>
<text x="1414" y="1582" font-size="20" font-weight="700" fill="#172C4B">publish · 자동 반영</text>
<svg xmlns="http://www.w3.org/2000/svg" fill="none" viewBox="0 0 100 100" x="1414" y="1600" width="24" height="24" color="#172C4B"><path fill="#000" d="M98.472 59.902c-.582-1.766-2.105-2.995-4.074-3.29-.929-.14-1.992-.08-3.251.18-2.194.454-3.821.627-5.009.66 4.483-7.59 8.129-16.246 10.227-24.393 3.394-13.175 1.58-19.177-.539-21.892C90.218 3.981 82.036.121 72.166.003c-5.267-.065-9.89.978-12.3 1.728-2.246-.398-4.66-.62-7.193-.66-4.749-.076-8.944.962-12.529 3.095a57 57 0 0 0-8.848-2.227C22.644.514 15.672 1.624 10.57 5.237c-6.175 4.375-9.038 11.975-8.509 22.59.168 3.37 2.048 13.625 5.009 23.35 1.701 5.59 3.515 10.232 5.392 13.798 2.661 5.058 5.51 8.035 8.706 9.105 1.792.599 5.048 1.018 8.472-1.842.434.527 1.013 1.05 1.782 1.537.976.618 2.17 1.122 3.361 1.42 4.296 1.078 8.319.808 11.752-.701.02.612.037 1.197.05 1.702.023.82.046 1.623.076 2.374.203 5.08.548 9.029 1.57 11.792.055.152.13.384.21.63.51 1.564 1.361 4.182 3.529 6.232C54.215 99.35 56.929 100 59.415 100c1.247 0 2.437-.164 3.48-.388 3.72-.8 7.944-2.017 11-6.38 2.889-4.125 4.293-10.337 4.547-20.126l.093-.793.06-.517.68.06.176.012c3.788.173 8.42-.633 11.265-1.958 2.248-1.046 9.452-4.86 7.756-10.008" /><path fill="#336791" d="M91.994 60.903c-11.264 2.33-12.038-1.494-12.038-1.494C91.848 41.713 96.82 19.251 92.53 13.753 80.825-1.243 60.564 5.85 60.226 6.033l-.109.02c-2.225-.463-4.716-.74-7.515-.785-5.096-.084-8.963 1.34-11.896 3.57 0 0-36.145-14.93-34.463 18.78.357 7.17 10.25 54.262 22.05 40.039 4.313-5.202 8.48-9.6 8.48-9.6 2.07 1.38 4.547 2.082 7.145 1.83l.202-.172c-.063.646-.034 1.277.08 2.025-3.04 3.406-2.146 4.004-8.223 5.258-6.149 1.271-2.537 3.533-.178 4.125 2.859.717 9.474 1.732 13.943-4.542l-.178.716c1.19.957 2.027 6.222 1.887 10.996-.14 4.773-.234 8.05.704 10.61.94 2.56 1.874 8.32 9.863 6.604 6.674-1.435 10.134-5.152 10.615-11.353.341-4.407 1.114-3.756 1.163-7.697l.62-1.865c.715-5.976.113-7.904 4.225-7.007l1 .088c3.027.138 6.988-.488 9.313-1.572 5.007-2.33 7.976-6.22 3.04-5.198" /><path fill="#fff" d="M42.821 30.825c-1.015-.142-1.934-.011-2.4.342a.88.88 0 0 0-.364.587c-.058.42.235.884.415 1.123.51.678 1.255 1.143 1.992 1.246q.16.022.319.022c1.229 0 2.347-.96 2.445-1.668.123-.887-1.161-1.479-2.407-1.652m33.627.028c-.097-.696-1.33-.894-2.502-.73-1.17.162-2.303.692-2.209 1.389.076.542 1.052 1.467 2.207 1.467q.146 0 .296-.02c.77-.108 1.337-.599 1.605-.882.41-.431.647-.912.603-1.224" /><path fill="#fff" d="M95.743 60.639c-.43-1.303-1.812-1.721-4.109-1.246-6.82 1.411-9.262.434-10.063-.158 5.3-8.098 9.66-17.886 12.013-27.018 1.114-4.326 1.73-8.343 1.78-11.618.056-3.594-.555-6.235-1.814-7.848-5.076-6.505-12.526-9.993-21.544-10.09-6.2-.069-11.437 1.522-12.453 1.97a31 31 0 0 0-7.008-.903c-4.654-.076-8.677 1.042-12.007 3.32a53.5 53.5 0 0 0-9.759-2.566c-7.905-1.277-14.187-.31-18.67 2.875-5.35 3.8-7.819 10.593-7.34 20.19.16 3.229 1.995 13.161 4.89 22.673 3.811 12.52 7.954 19.607 12.313 21.065.51.17 1.098.29 1.747.29 1.59 0 3.54-.719 5.568-3.164a201 201 0 0 1 7.674-8.707 12.34 12.34 0 0 0 5.52 1.489l.014.151q-.497.594-.973 1.206c-1.334 1.698-1.612 2.052-5.906 2.938-1.221.253-4.465.923-4.513 3.204-.052 2.491 3.835 3.538 4.277 3.648 1.543.388 3.03.579 4.448.579 3.447 0 6.482-1.136 8.906-3.335-.074 8.882.295 17.634 1.359 20.3.87 2.183 2.999 7.519 9.72 7.518.986 0 2.072-.115 3.266-.372 7.015-1.508 10.061-4.617 11.24-11.47.63-3.664 1.712-12.411 2.221-17.103 1.074.336 2.457.49 3.952.49 3.118 0 6.715-.665 8.972-1.715 2.534-1.18 7.108-4.077 6.279-6.593M79.038 28.933c-.024 1.385-.214 2.643-.415 3.956-.217 1.411-.442 2.87-.498 4.642-.056 1.725.16 3.517.367 5.251.42 3.502.85 7.107-.817 10.664q-.415-.739-.738-1.522c-.208-.504-.658-1.313-1.28-2.433-2.424-4.358-8.1-14.565-5.194-18.73.865-1.24 3.061-2.514 8.575-1.828M72.355 5.467c8.08.179 14.472 3.21 18.997 9.009 3.471 4.447-.35 24.686-11.415 42.145l-.336-.424-.14-.175c2.86-4.735 2.3-9.42 1.802-13.574-.204-1.704-.397-3.314-.348-4.827.05-1.602.262-2.977.467-4.306.25-1.638.506-3.333.436-5.332.053-.21.074-.457.046-.75-.18-1.917-2.361-7.652-6.808-12.842-2.432-2.839-5.98-6.016-10.822-8.159 2.083-.433 4.931-.836 8.12-.765M27.14 66.622c-2.234 2.694-3.777 2.177-4.285 2.008-3.306-1.106-7.143-8.114-10.526-19.227-2.927-9.615-4.637-19.285-4.773-21.996-.427-8.575 1.646-14.551 6.162-17.763 7.35-5.226 19.432-2.098 24.287-.511-.07.069-.142.133-.211.203-7.967 8.069-7.778 21.854-7.759 22.697 0 .325.027.785.064 1.418.137 2.319.392 6.634-.29 11.521-.633 4.541.763 8.986 3.83 12.195q.472.494.991.937a205 205 0 0 0-7.49 8.518m8.514-11.391c-2.471-2.587-3.594-6.184-3.08-9.872.72-5.162.454-9.658.311-12.073-.02-.338-.038-.635-.048-.868 1.164-1.035 6.558-3.933 10.404-3.05 1.755.404 2.825 1.603 3.27 3.664 2.301 10.674.304 15.122-1.3 18.697-.33.737-.643 1.433-.91 2.153l-.207.557c-.523 1.407-1.01 2.716-1.312 3.959-2.628-.008-5.184-1.134-7.128-3.168m.404 14.394c-.768-.192-1.458-.526-1.863-.803.339-.16.94-.377 1.984-.593 5.052-1.042 5.832-1.778 7.535-3.947.391-.498.834-1.061 1.447-1.748.914-1.026 1.332-.852 2.09-.537.613.254 1.211 1.026 1.454 1.875.114.401.243 1.163-.178 1.755-3.56 4.997-8.745 4.933-12.47 3.998m26.436 24.668c-6.18 1.328-8.368-1.834-9.81-5.448-.93-2.334-1.388-12.856-1.063-24.477a1.4 1.4 0 0 0-.06-.444 6 6 0 0 0-.173-.821c-.483-1.691-1.659-3.106-3.07-3.692-.56-.233-1.589-.66-2.825-.343.264-1.09.72-2.32 1.217-3.651l.208-.56c.234-.632.528-1.287.838-1.98 1.68-3.74 3.978-8.863 1.483-20.436-.935-4.335-4.056-6.452-8.789-5.96-2.836.294-5.432 1.442-6.727 2.1-.278.141-.532.278-.77.41.361-4.367 1.726-12.53 6.832-17.694C43 8.045 47.281 6.439 52.498 6.526c10.28.168 16.871 5.458 20.591 9.866 3.206 3.799 4.942 7.625 5.635 9.69-5.21-.532-8.753.499-10.55 3.074-3.907 5.601 2.138 16.473 5.044 21.698.533.957.993 1.785 1.137 2.136.946 2.3 2.171 3.835 3.065 4.955.275.343.54.677.743.967-1.578.457-4.412 1.51-4.154 6.779-.208 2.643-1.69 15.02-2.442 19.392-.994 5.776-3.114 7.928-9.074 9.21m25.795-29.6c-1.614.751-4.314 1.315-6.879 1.436-2.833.133-4.275-.319-4.615-.596-.159-3.283 1.06-3.626 2.35-3.99.202-.056.4-.112.59-.179q.179.146.391.287c2.277 1.507 6.339 1.67 12.073.483l.063-.013c-.774.726-2.097 1.699-3.974 2.572" /></svg>
<text x="1448" y="1620" font-size="18" font-weight="400" fill="#172C4B">관계 저장 · 자동 반영</text>
<text x="1414" y="1651" font-size="18" font-weight="400" fill="#172C4B">같은 트랜잭션 · 페이지 새 Version</text>
<text x="1414" y="1682" font-size="18" font-weight="400" fill="#172C4B">검토는 나중 · review queue</text>
<text x="404" y="1775" font-size="18" font-weight="700" fill="#172C4B">Step마다 status · attempts · error · retryAt를 따로 기록 · 실패한 Step부터 재시도 · 앞 Step 결과 재사용</text>
<text x="404" y="1805" font-size="16" font-weight="400" fill="#172C4B">model 출력 오류 → 새 응답 · 3회 연속이면 확인 필요 · 일시 제공자 오류는 추출과 같은 키 대기</text>
<text x="404" y="1833" font-size="16" font-weight="400" fill="#172C4B">publish의 대상 Version 변경 → 같은 주장이면 현재 Version으로 재대상 · 아니면 gather부터 · Job 재시작 최대 3회</text>
<rect x="64" y="1790" width="300" height="130" rx="6" fill="#E3E7ED" stroke="#929EAD" stroke-dasharray="10 6" stroke-width="2.5"/>
<text x="84" y="1832" font-size="20" font-weight="700" fill="#172C4B">거절 관계 기억</text>
<svg xmlns="http://www.w3.org/2000/svg" width="24" height="24" viewBox="0 0 24 24" fill="none" stroke="currentColor" stroke-width="2" stroke-linecap="round" stroke-linejoin="round" x="84" y="1850" color="#172C4B">
  <path d="M9 5h-2a2 2 0 0 0 -2 2v12a2 2 0 0 0 2 2h10a2 2 0 0 0 2 -2v-12a2 2 0 0 0 -2 -2h-2" />
  <path d="M9 3m0 2a2 2 0 0 1 2 -2h2a2 2 0 0 1 2 2v0a2 2 0 0 1 -2 2h-2a2 2 0 0 1 -2 -2z" />
  <path d="M9 14l2 2l4 -4" />
</svg>
<text x="118" y="1870" font-size="18" font-weight="400" fill="#172C4B">reject한 관계 저장</text>
<text x="84" y="1901" font-size="18" font-weight="400" fill="#172C4B">같은 관계 재제안 제외</text>
<path d="M364 1845 H384 V1660 H404" fill="none" stroke="#68778B" stroke-width="2.5" stroke-linejoin="round" stroke-dasharray="6 5" marker-end="url(#arrow-ops)"/>
<path d="M1544 1730 V1980 H846 V2010" fill="none" stroke="#B35C00" stroke-width="2.5" stroke-linejoin="round" marker-end="url(#arrow-ingest)"/>
<text x="862" y="1972" font-size="16" font-weight="700" fill="#B35C00">관계 반영 → 페이지 새 Version</text>
<path d="M214 2010 V1950" fill="none" stroke="#68778B" stroke-width="2.5" stroke-linejoin="round" stroke-dasharray="6 5" marker-end="url(#arrow-ops)"/>
<text x="230" y="1988" font-size="16" font-weight="700" fill="#68778B">거절 저장</text>
<rect x="40" y="2010" width="1680" height="390" rx="6" fill="#F1F2F4" stroke="#596679" stroke-width="2.5"/>
<path d="M46 2010 H1714 Q1720 2010 1720 2016 V2064 H40 V2016 Q40 2010 46 2010" fill="#344256"/>
<text x="64" y="2046" font-size="24" font-weight="700" fill="#FFFFFF">04 · L3 · Knowledge · 통합 후 · Wiki Page 새 Version · Knowledge 화면과 검토</text>
<rect x="64" y="2090" width="472" height="270" rx="6" fill="#E3E7ED" stroke="#929EAD" stroke-dasharray="10 6" stroke-width="2.5"/>
<text x="84" y="2132" font-size="20" font-weight="700" fill="#172C4B">검토 · review · relation reject</text>
<svg xmlns="http://www.w3.org/2000/svg" width="24" height="24" viewBox="0 0 24 24" fill="none" stroke="currentColor" stroke-width="2" stroke-linecap="round" stroke-linejoin="round" x="84" y="2150" color="#172C4B">
  <path d="M9 5h-2a2 2 0 0 0 -2 2v12a2 2 0 0 0 2 2h10a2 2 0 0 0 2 -2v-12a2 2 0 0 0 -2 -2h-2" />
  <path d="M9 3m0 2a2 2 0 0 1 2 -2h2a2 2 0 0 1 2 2v0a2 2 0 0 1 -2 2h-2a2 2 0 0 1 -2 -2z" />
  <path d="M9 14l2 2l4 -4" />
</svg>
<text x="118" y="2170" font-size="18" font-weight="400" fill="#172C4B">review queue · diff → 새 관계 확인</text>
<text x="84" y="2201" font-size="18" font-weight="400" fill="#172C4B">relation reject → 정정 Version 발행</text>
<text x="84" y="2232" font-size="18" font-weight="400" fill="#172C4B">대상 주장을 관계 전 상태로 복원</text>
<text x="84" y="2263" font-size="18" font-weight="400" fill="#172C4B">거절 기억에 저장 → 재제안 제외</text>
<text x="84" y="2294" font-size="18" font-weight="400" fill="#172C4B">자동 반영 ≠ 검토 완료 · 승인은 사용자</text>
<rect x="576" y="2090" width="540" height="270" rx="6" fill="#FFFFFF" stroke="#929EAD" stroke-dasharray="10 6" stroke-width="2.5"/>
<text x="596" y="2132" font-size="20" font-weight="700" fill="#172C4B">Knowledge 페이지 · 현재 주장만</text>
<svg xmlns="http://www.w3.org/2000/svg" width="24" height="24" viewBox="0 0 24 24" fill="none" stroke="currentColor" stroke-width="2" stroke-linecap="round" stroke-linejoin="round" x="596" y="2150" color="#172C4B">
  <path d="M3 12a9 9 0 1 0 18 0a9 9 0 0 0 -18 0" />
  <path d="M3.6 9h16.8" />
  <path d="M3.6 15h16.8" />
  <path d="M11.5 3a17 17 0 0 0 0 18" />
  <path d="M12.5 3a17 17 0 0 1 0 18" />
</svg>
<text x="630" y="2170" font-size="18" font-weight="400" fill="#172C4B">ai-provider · curation</text>
<text x="596" y="2201" font-size="18" font-weight="400" fill="#172C4B">↳ B · 정제 Provider = Alibaba → 클릭</text>
<text x="596" y="2232" font-size="18" font-weight="400" fill="#172C4B">concurrency · curation</text>
<text x="596" y="2263" font-size="18" font-weight="400" fill="#172C4B">↳ C · API 동시 실행 = 5</text>
<text x="596" y="2294" font-size="18" font-weight="400" fill="#172C4B">미해결 1 · 제안 D · 접힌 개수</text>
<text x="596" y="2325" font-size="18" font-weight="400" fill="#172C4B">통합 대기 배지 · Job이 열린 동안</text>
<path d="M1116 2225 H1156" fill="none" stroke="#245CC5" stroke-width="2.5" stroke-linejoin="round" marker-end="url(#arrow-query)"/>
<text x="1118" y="2212" font-size="16" font-weight="700" fill="#245CC5">클릭</text>
<rect x="1156" y="2090" width="540" height="270" rx="6" fill="#D4EDE4" stroke="#74AA98" stroke-dasharray="10 6" stroke-width="2.5"/>
<text x="1176" y="2132" font-size="20" font-weight="700" fill="#172C4B">리니지 패널 · B를 클릭</text>
<rect x="1176" y="2150" width="200" height="64" rx="6" fill="#FFFFFF" stroke="#74AA98"/>
<text x="1190" y="2176" font-size="16" font-weight="700" fill="#172C4B">Claim B · current</text>
<text x="1190" y="2200" font-size="16" font-weight="400" fill="#172C4B">정제 Provider = Alibaba</text>
<rect x="1476" y="2150" width="200" height="64" rx="6" fill="#FFFFFF" stroke="#929EAD"/>
<text x="1490" y="2176" font-size="16" font-weight="700" fill="#172C4B">Claim A · superseded</text>
<text x="1490" y="2200" font-size="16" font-weight="400" fill="#172C4B">정제 Provider = NVIDIA</text>
<path d="M1376 2182 H1476" fill="none" stroke="#8054A3" stroke-width="2.5" stroke-linejoin="round" marker-end="url(#arrow-relation)"/>
<text x="1384" y="2172" font-size="16" font-weight="700" fill="#8054A3">supersedes</text>
<text x="1176" y="2252" font-size="18" font-weight="400" fill="#172C4B">변경 이유 · 호출 지연 · 근거 10:00 · Version 고정</text>
<text x="1176" y="2283" font-size="18" font-weight="400" fill="#172C4B">후속이 둘이면 둘 다 표시 · contradicts는 배지</text>
<text x="1176" y="2314" font-size="18" font-weight="400" fill="#172C4B">거절된 관계는 정정 Version과 함께 표시</text>
<text x="1176" y="2342" font-size="16" font-weight="400" fill="#172C4B">Decision History 마크다운 절은 그대로 유지</text>
</g></svg>
